<?xml version="1.0" encoding="UTF-8"?>
<svg id="Layer_2" data-name="Layer 2" xmlns="http://www.w3.org/2000/svg" viewBox="0 0 264.5 262.14">
  <g id="Layer_1-2" data-name="Layer 1">
    <path d="M264.5,221.22c0-5.19-1.68-10.37-5.03-14.68l-.08-.08-33.29-33.35-.15-.15c-9.36-7.5-23.06-6.92-31.76,1.71l-.21.21-18.02,18.31c-7.93,7.88-20.36,8.95-29.53,2.56-15.86-11.09-30.72-23.57-44.38-37.29-12.25-12.2-23.52-25.36-33.71-39.34-6.7-9.18-5.69-21.88,2.39-29.87l18.94-18.94c4.67-4.67,7-10.78,7-16.9,0-6.12-2.33-12.23-6.99-16.89L60.16,7c-9.33-9.33-24.46-9.33-33.79,0l-5.97,5.97C1.96,31.11-4.65,58.1,3.33,82.69c6.95,20.94,16.78,40.81,29.18,59.05,11.34,16.96,24.35,32.73,38.83,47.1,15.73,15.83,33.16,29.88,51.97,41.9,20.24,13.29,42.48,23.26,65.87,29.53,23.22,5.54,47.65-1.45,64.42-18.43l2.17-2.16h0s3.13-3.12,3.13-3.12l.05-.05c3.69-4.43,5.54-9.86,5.54-15.29Z"/>
  </g>
</svg>