<?xml version="1.0" encoding="UTF-8" standalone="no"?>
<!DOCTYPE svg PUBLIC "-//W3C//DTD SVG 1.1//EN" "http://www.w3.org/Graphics/SVG/1.1/DTD/svg11.dtd">
<svg xmlns="http://www.w3.org/2000/svg" version="1.1" viewBox="0.00 0.00 512.00 512.00">
<path fill="#191919" d="
  M 257.04 43.42
  C 376.72 43.42 444.79 43.44 461.25 43.47
  C 484.56 43.51 505.88 62.79 510.33 85.43
  C 510.89 88.28 511.17 93.37 511.17 100.69
  C 511.16 136.53 511.16 175.93 511.19 218.89
  C 511.19 219.38 510.79 219.78 510.30 219.79
  C 505.89 219.81 421.47 219.82 257.04 219.82
  C 92.60 219.81 8.18 219.80 3.78 219.78
  C 3.28 219.77 2.88 219.37 2.88 218.88
  C 2.91 175.92 2.92 136.52 2.91 100.68
  C 2.91 93.36 3.19 88.27 3.75 85.42
  C 8.20 62.78 29.52 43.50 52.83 43.46
  C 69.29 43.43 137.36 43.42 257.04 43.42
  Z
  M 118.77 135.73
  C 118.77 119.19 105.36 105.78 88.82 105.78
  C 72.28 105.78 58.87 119.19 58.87 135.73
  C 58.87 152.27 72.28 165.68 88.82 165.68
  C 105.36 165.68 118.77 152.27 118.77 135.73
  Z
  M 236.88 135.77
  C 236.88 119.21 223.45 105.78 206.89 105.78
  C 190.33 105.78 176.90 119.21 176.90 135.77
  C 176.90 152.33 190.33 165.76 206.89 165.76
  C 223.45 165.76 236.88 152.33 236.88 135.77
  Z"
/>
<path fill="#191919" d="
  M 42.18 469.45
  C 23.36 465.23 8.78 450.08 4.14 431.73
  C 3.29 428.35 2.86 423.51 2.87 417.20
  C 2.90 390.82 2.91 340.70 2.89 266.85
  C 2.89 266.26 3.37 265.78 3.96 265.78
  L 168.92 265.78
  C 169.56 265.78 170.07 266.29 170.07 266.93
  L 170.07 469.90
  C 170.07 470.29 169.76 470.60 169.37 470.60
  C 120.80 470.61 83.99 470.62 58.94 470.61
  C 51.21 470.61 45.63 470.22 42.18 469.45
  Z"
/>
<rect fill="#191919" x="-126.41" y="-27.22" transform="translate(338.50,293.04) rotate(0.1)" width="252.82" height="54.44" rx="26.61"/>
<rect fill="#191919" x="211.99" y="363.68" width="253.00" height="54.04" rx="26.43"/>
</svg>
